<svg width="36" height="36" viewBox="0 0 36 36" fill="none" xmlns="http://www.w3.org/2000/svg"><path d="M18 36c9.941 0 18-8.059 18-18S27.941 0 18 0 0 8.059 0 18s8.059 18 18 18z" fill="#FB5D00"/><path d="M36 18a18.2 18.2 0 0 0-.022-.877c-.045-.045-.088-.094-.134-.134A4513.365 4513.365 0 0 0 25.765 6.912c-.302-.346-.634-.55-.984-.55-.7 0-1.333.816-1.787 1.964a10.747 10.747 0 0 0-5.06-1.26c-1.395 0-2.726.269-3.95.75-.044-.085-.326-.374-.428-.416a.405.405 0 0 0-.782.152v.43c-.044-.057-.512-.54-.614-.582a.405.405 0 0 0-.782.152v.43c-.044-.058-.512-.54-.614-.582a.405.405 0 0 0-.781.152v.43c-.044-.058-.513-.54-.615-.582a.405.405 0 0 0-.781.152v4.91a10.74 10.74 0 0 0-1.448 5.4c0 2.838 1.097 5.42 2.888 7.346-.09.694-.152 1.217-.152 1.364v1.78l-.007.071c0 .393.19.74.48.962.064.084 6.41 6.43 6.495 6.495l.086.086c.354.021.71.035 1.071.035 9.941 0 18-8.059 18-18z" fill="#E73B00"/><path d="M17.933 28.656c5.962 0 10.796-4.833 10.796-10.795 0-5.963-4.834-10.796-10.796-10.796S7.137 11.898 7.137 17.861c0 5.962 4.834 10.795 10.796 10.795z" fill="#fff"/><path d="M17.933 26.512a8.65 8.65 0 1 0 0-17.302 8.65 8.65 0 0 0 0 17.302z" fill="#D6EAF0"/><path d="M17.933 24.708a6.847 6.847 0 1 0 0-13.695 6.847 6.847 0 0 0 0 13.695z" fill="#fff"/><path d="M22.28 12.168c0 1.966 2.138 2.644 2.138 3.168v4.182c0 .515-.848 6.232-.848 6.774v1.78l-.007.072a1.217 1.217 0 1 0 2.433 0l-.004-.04v-1.823c-.005-.537-.848-6.252-.848-6.763v-4.182c0-.524 2.138-1.202 2.138-3.168 0-2.64-1.12-5.808-2.5-5.808-1.382 0-2.502 3.167-2.502 5.808z" fill="#ADE"/><path d="M24.78 29.36c.672 0 1.216-.544 1.216-1.216l-.004-.04v-1.823c-.005-.537-.848-6.252-.848-6.763v-4.182c0-.524 2.137-1.202 2.137-3.168 0-2.64-1.12-5.808-2.5-5.808v23z" fill="#38B5C7"/><path d="M10.794 7.551a.406.406 0 0 0-.812 0v4.873h-.584V7.55a.406.406 0 1 0-.812 0v4.896c0 1.966 2.137 2.643 2.137 3.168v4.182c0 .514-.848 6.232-.848 6.774v1.78l-.007.072a1.217 1.217 0 1 0 2.434 0l-.005-.04V26.56c-.004-.538-.848-6.253-.848-6.764v-4.182c0-.525 2.138-1.202 2.138-3.168V7.55a.406.406 0 0 0-.812 0v4.873h-.584V7.551a.406.406 0 0 0-.812 0v4.873h-.583V7.551h-.002z" fill="#ADE"/><path d="M11.784 7.145a.406.406 0 0 0-.406.406v4.873h-.292v17.215a1.217 1.217 0 0 0 1.215-1.217l-.004-1.862c-.005-.537-.848-6.252-.848-6.763v-4.182c0-.525 2.137-1.202 2.137-3.168V7.55a.406.406 0 1 0-.812 0v4.873h-.583V7.55a.407.407 0 0 0-.407-.406z" fill="#38B5C7"/></svg>